<mxfile host="app.diagrams.net" modified="2021-06-16T15:20:07.111Z" agent="5.0 (Windows NT 10.0; Win64; x64) AppleWebKit/537.36 (KHTML, like Gecko) Chrome/90.0.4430.212 Safari/537.36 OPR/76.0.4017.177" etag="i6H25mmKANfLsVpM1q-V" version="14.7.7" type="github">
  <diagram id="C5RBs43oDa-KdzZeNtuy" name="Page-1">
    <mxGraphModel dx="1057" dy="1633" grid="1" gridSize="10" guides="1" tooltips="1" connect="1" arrows="1" fold="1" page="1" pageScale="1" pageWidth="827" pageHeight="1169" math="0" shadow="0">
      <root>
        <mxCell id="WIyWlLk6GJQsqaUBKTNV-0" />
        <mxCell id="WIyWlLk6GJQsqaUBKTNV-1" parent="WIyWlLk6GJQsqaUBKTNV-0" />
        <mxCell id="VKwXA5XBUQnjwvS2gpGB-0" value="" style="rounded=1;whiteSpace=wrap;html=1;" vertex="1" parent="WIyWlLk6GJQsqaUBKTNV-1">
          <mxGeometry x="90" y="120" width="650" height="430" as="geometry" />
        </mxCell>
        <mxCell id="igPUQAhgrNbxx1Y-yZDv-14" value="" style="rounded=1;whiteSpace=wrap;html=1;fillColor=#dae8fc;strokeColor=#6c8ebf;" parent="WIyWlLk6GJQsqaUBKTNV-1" vertex="1">
          <mxGeometry x="270" y="200" width="60" height="320" as="geometry" />
        </mxCell>
        <mxCell id="igPUQAhgrNbxx1Y-yZDv-5" style="rounded=0;orthogonalLoop=1;jettySize=auto;html=1;exitX=1;exitY=0.5;exitDx=0;exitDy=0;entryX=0;entryY=0;entryDx=0;entryDy=0;" parent="WIyWlLk6GJQsqaUBKTNV-1" source="igPUQAhgrNbxx1Y-yZDv-0" target="igPUQAhgrNbxx1Y-yZDv-3" edge="1">
          <mxGeometry relative="1" as="geometry" />
        </mxCell>
        <mxCell id="igPUQAhgrNbxx1Y-yZDv-0" value="&lt;font style=&quot;font-size: 16px&quot;&gt;Terraform&lt;br&gt;Branch&lt;/font&gt;" style="ellipse;whiteSpace=wrap;html=1;fillColor=#e1d5e7;strokeColor=#9673a6;" parent="WIyWlLk6GJQsqaUBKTNV-1" vertex="1">
          <mxGeometry x="120" y="200" width="120" height="80" as="geometry" />
        </mxCell>
        <mxCell id="igPUQAhgrNbxx1Y-yZDv-6" style="edgeStyle=none;rounded=0;orthogonalLoop=1;jettySize=auto;html=1;exitX=1;exitY=0.5;exitDx=0;exitDy=0;entryX=0;entryY=0.5;entryDx=0;entryDy=0;" parent="WIyWlLk6GJQsqaUBKTNV-1" source="igPUQAhgrNbxx1Y-yZDv-1" target="igPUQAhgrNbxx1Y-yZDv-3" edge="1">
          <mxGeometry relative="1" as="geometry" />
        </mxCell>
        <mxCell id="igPUQAhgrNbxx1Y-yZDv-1" value="&lt;span style=&quot;font-size: 16px&quot;&gt;K8&lt;br&gt;&lt;/span&gt;&lt;font style=&quot;font-size: 16px&quot;&gt;Branch&lt;/font&gt;" style="ellipse;whiteSpace=wrap;html=1;fillColor=#e1d5e7;strokeColor=#9673a6;" parent="WIyWlLk6GJQsqaUBKTNV-1" vertex="1">
          <mxGeometry x="120" y="320" width="120" height="80" as="geometry" />
        </mxCell>
        <mxCell id="igPUQAhgrNbxx1Y-yZDv-7" style="edgeStyle=none;rounded=0;orthogonalLoop=1;jettySize=auto;html=1;exitX=1;exitY=0.5;exitDx=0;exitDy=0;entryX=0;entryY=1;entryDx=0;entryDy=0;" parent="WIyWlLk6GJQsqaUBKTNV-1" source="igPUQAhgrNbxx1Y-yZDv-2" target="igPUQAhgrNbxx1Y-yZDv-3" edge="1">
          <mxGeometry relative="1" as="geometry" />
        </mxCell>
        <mxCell id="igPUQAhgrNbxx1Y-yZDv-2" value="&lt;span style=&quot;font-size: 16px&quot;&gt;App&lt;br&gt;&lt;/span&gt;&lt;font style=&quot;font-size: 16px&quot;&gt;Branch&lt;/font&gt;" style="ellipse;whiteSpace=wrap;html=1;fillColor=#e1d5e7;strokeColor=#9673a6;" parent="WIyWlLk6GJQsqaUBKTNV-1" vertex="1">
          <mxGeometry x="120" y="440" width="120" height="80" as="geometry" />
        </mxCell>
        <mxCell id="igPUQAhgrNbxx1Y-yZDv-8" style="edgeStyle=none;rounded=0;orthogonalLoop=1;jettySize=auto;html=1;exitX=1;exitY=0.5;exitDx=0;exitDy=0;startArrow=none;" parent="WIyWlLk6GJQsqaUBKTNV-1" source="igPUQAhgrNbxx1Y-yZDv-16" target="igPUQAhgrNbxx1Y-yZDv-4" edge="1">
          <mxGeometry relative="1" as="geometry" />
        </mxCell>
        <mxCell id="igPUQAhgrNbxx1Y-yZDv-3" value="&lt;font style=&quot;font-size: 16px&quot;&gt;Dev&lt;br&gt;Branch&lt;/font&gt;" style="ellipse;whiteSpace=wrap;html=1;fillColor=#fff2cc;strokeColor=#d6b656;" parent="WIyWlLk6GJQsqaUBKTNV-1" vertex="1">
          <mxGeometry x="360" y="320" width="120" height="80" as="geometry" />
        </mxCell>
        <mxCell id="igPUQAhgrNbxx1Y-yZDv-4" value="&lt;font style=&quot;font-size: 16px&quot;&gt;Main&lt;br&gt;Branch&lt;/font&gt;" style="ellipse;whiteSpace=wrap;html=1;fillColor=#d5e8d4;strokeColor=#82b366;" parent="WIyWlLk6GJQsqaUBKTNV-1" vertex="1">
          <mxGeometry x="600" y="320" width="120" height="80" as="geometry" />
        </mxCell>
        <mxCell id="igPUQAhgrNbxx1Y-yZDv-9" value="&lt;font style=&quot;font-size: 18px&quot;&gt;Feature Branches&lt;/font&gt;" style="text;html=1;strokeColor=none;fillColor=none;align=center;verticalAlign=middle;whiteSpace=wrap;rounded=0;" parent="WIyWlLk6GJQsqaUBKTNV-1" vertex="1">
          <mxGeometry x="120" y="150" width="120" height="20" as="geometry" />
        </mxCell>
        <mxCell id="igPUQAhgrNbxx1Y-yZDv-10" value="&lt;font style=&quot;font-size: 18px&quot;&gt;Staging Branch&lt;/font&gt;" style="text;html=1;strokeColor=none;fillColor=none;align=center;verticalAlign=middle;whiteSpace=wrap;rounded=0;" parent="WIyWlLk6GJQsqaUBKTNV-1" vertex="1">
          <mxGeometry x="360" y="250" width="120" height="20" as="geometry" />
        </mxCell>
        <mxCell id="igPUQAhgrNbxx1Y-yZDv-11" value="&lt;font style=&quot;font-size: 18px&quot;&gt;Deployment&lt;br&gt;Branch&lt;/font&gt;" style="text;html=1;strokeColor=none;fillColor=none;align=center;verticalAlign=middle;whiteSpace=wrap;rounded=0;" parent="WIyWlLk6GJQsqaUBKTNV-1" vertex="1">
          <mxGeometry x="600" y="250" width="120" height="20" as="geometry" />
        </mxCell>
        <mxCell id="igPUQAhgrNbxx1Y-yZDv-12" value="CI/CD&lt;br&gt;TESTS" style="text;html=1;strokeColor=none;fillColor=none;align=center;verticalAlign=middle;whiteSpace=wrap;rounded=0;" parent="WIyWlLk6GJQsqaUBKTNV-1" vertex="1">
          <mxGeometry x="280" y="220" width="40" height="20" as="geometry" />
        </mxCell>
        <mxCell id="igPUQAhgrNbxx1Y-yZDv-16" value="" style="rounded=1;whiteSpace=wrap;html=1;fillColor=#dae8fc;strokeColor=#6c8ebf;" parent="WIyWlLk6GJQsqaUBKTNV-1" vertex="1">
          <mxGeometry x="510" y="280" width="60" height="160" as="geometry" />
        </mxCell>
        <mxCell id="igPUQAhgrNbxx1Y-yZDv-17" value="" style="edgeStyle=none;rounded=0;orthogonalLoop=1;jettySize=auto;html=1;exitX=1;exitY=0.5;exitDx=0;exitDy=0;endArrow=none;entryX=1;entryY=0.5;entryDx=0;entryDy=0;" parent="WIyWlLk6GJQsqaUBKTNV-1" source="igPUQAhgrNbxx1Y-yZDv-3" target="igPUQAhgrNbxx1Y-yZDv-16" edge="1">
          <mxGeometry relative="1" as="geometry">
            <mxPoint x="480" y="360" as="sourcePoint" />
            <mxPoint x="600" y="360" as="targetPoint" />
          </mxGeometry>
        </mxCell>
        <mxCell id="igPUQAhgrNbxx1Y-yZDv-18" value="CI/CD&lt;br&gt;TESTS" style="text;html=1;strokeColor=none;fillColor=none;align=center;verticalAlign=middle;whiteSpace=wrap;rounded=0;" parent="WIyWlLk6GJQsqaUBKTNV-1" vertex="1">
          <mxGeometry x="520" y="290" width="40" height="20" as="geometry" />
        </mxCell>
      </root>
    </mxGraphModel>
  </diagram>
</mxfile>
